# This file uses centimeters as units for non-parametric coordinates.

mtllib Cristals3.mtl
g default
v -3.247483 0.429361 2.536127
v -3.590840 0.429361 4.151503
v -2.160632 0.429361 4.977233
v -0.933355 0.429361 3.872189
v -1.605066 0.429361 2.363503
v -2.582435 1.271520 2.637009
v -3.286132 1.178505 3.996361
v -2.197070 1.442985 4.670562
v -1.261627 1.594459 3.820804
v -1.518960 1.800551 2.214362
v -2.307475 0.429361 3.580111
v -2.184546 1.977500 3.582454
vt 0.669755 0.001741
vt 0.840799 0.001862
vt 0.837962 0.552744
vt 0.669636 0.552267
vt 0.010218 0.000977
vt 0.166132 0.001366
vt 0.163405 0.550904
vt 0.000977 0.551704
vt 0.327975 0.001984
vt 0.330520 0.551305
vt 0.496934 0.001967
vt 0.499884 0.552163
vt 0.816495 0.561869
vt 0.902095 0.825319
vt 0.677991 0.752503
vt 0.539488 0.561869
vt 0.453888 0.825319
vt 0.677991 0.988139
vt 0.089575 0.574814
vt 0.359049 0.572287
vt 0.226052 0.759000
vt 0.444725 0.827790
vt 0.228202 0.988228
vt 0.008707 0.831880
vn -0.825141 0.493471 -0.275006
vn -0.825141 0.493471 -0.275006
vn -0.825141 0.493471 -0.275006
vn -0.825141 0.493471 -0.275006
vn -0.511904 0.289769 0.808695
vn -0.511904 0.289769 0.808695
vn -0.511904 0.289769 0.808695
vn -0.511904 0.289769 0.808695
vn 0.644082 0.227826 0.730242
vn 0.644082 0.227826 0.730242
vn 0.644082 0.227826 0.730242
vn 0.644082 0.227826 0.730242
vn 0.957238 0.069188 -0.280905
vn 0.957238 0.069188 -0.280906
vn 0.957238 0.069188 -0.280906
vn 0.957238 0.069188 -0.280906
vn -0.224786 0.055075 -0.972851
vn -0.224786 0.055075 -0.972851
vn -0.224786 0.055075 -0.972851
vn -0.224786 0.055075 -0.972850
vn 0.000000 -1.000000 0.000000
vn 0.000000 -1.000000 0.000000
vn 0.000000 -1.000000 0.000000
vn 0.000000 -1.000000 0.000000
vn 0.000000 -1.000000 0.000000
vn 0.000000 -1.000000 0.000000
vn 0.000000 -1.000000 0.000000
vn 0.000000 -1.000000 0.000000
vn 0.000000 -1.000000 0.000000
vn 0.000000 -1.000000 0.000000
vn 0.000000 -1.000000 0.000000
vn 0.000000 -1.000000 0.000000
vn 0.000000 -1.000000 -0.000000
vn 0.000000 -1.000000 -0.000000
vn 0.000000 -1.000000 -0.000000
vn -0.630160 0.725539 -0.276571
vn -0.630160 0.725539 -0.276571
vn -0.630160 0.725539 -0.276570
vn -0.439038 0.808412 0.392066
vn -0.439038 0.808412 0.392066
vn -0.439038 0.808412 0.392066
vn 0.249403 0.868051 0.429286
vn 0.249402 0.868051 0.429286
vn 0.249402 0.868050 0.429286
vn 0.369432 0.927332 0.059790
vn 0.369432 0.927332 0.059790
vn 0.369432 0.927333 0.059790
vn -0.525750 0.772690 -0.355720
vn -0.525750 0.772690 -0.355720
vn -0.525750 0.772690 -0.355720
s off
g polySurface8 Cristals3 CristalsAllTogether:polySurface1 IMPORTANT
usemtl Cristal7SG
f 1/1/1 2/2/2 7/3/3 6/4/4
f 2/5/5 3/6/6 8/7/7 7/8/8
f 3/6/9 4/9/10 9/10/11 8/7/12
f 4/9/13 5/11/14 10/12/15 9/10/16
f 5/11/17 1/1/18 6/4/19 10/12/20
f 2/13/21 1/14/22 11/15/23
f 3/16/24 2/13/25 11/15/26
f 4/17/27 3/16/28 11/15/29
f 5/18/30 4/17/31 11/15/32
f 1/14/33 5/18/34 11/15/35
f 6/19/36 7/20/37 12/21/38
f 7/20/39 8/22/40 12/21/41
f 8/22/42 9/23/43 12/21/44
f 9/23/45 10/24/46 12/21/47
f 10/24/48 6/19/49 12/21/50
g default
v -3.020598 0.480263 5.229445
v -2.598680 0.480263 4.955449
v -2.728887 0.480263 4.469512
v -3.231277 0.480263 4.443182
v -3.411564 0.480263 4.912848
v -3.142121 0.736807 5.064462
v -2.697733 0.708472 4.923231
v -2.787096 0.789040 4.543419
v -3.171634 0.835183 4.524961
v -3.462237 0.897964 4.926425
v -2.998201 0.480263 4.802088
v -3.024175 1.247046 4.775103
vt 0.669755 0.001741
vt 0.840799 0.001862
vt 0.837962 0.552744
vt 0.669636 0.552267
vt 0.010218 0.000977
vt 0.166132 0.001366
vt 0.163405 0.550904
vt 0.000977 0.551704
vt 0.327975 0.001984
vt 0.330520 0.551305
vt 0.496934 0.001967
vt 0.499884 0.552163
vt 0.816495 0.561869
vt 0.902095 0.825319
vt 0.677991 0.752503
vt 0.539488 0.561869
vt 0.453888 0.825319
vt 0.677991 0.988139
vt 0.089575 0.574814
vt 0.359049 0.572287
vt 0.226052 0.759000
vt 0.444725 0.827790
vt 0.228202 0.988228
vt 0.008707 0.831880
vn 0.389004 0.493470 0.777922
vn 0.389004 0.493470 0.777922
vn 0.389004 0.493470 0.777922
vn 0.389004 0.493470 0.777922
vn 0.933805 0.289768 -0.209863
vn 0.933805 0.289768 -0.209863
vn 0.933805 0.289768 -0.209863
vn 0.933805 0.289768 -0.209863
vn 0.060924 0.227828 -0.971794
vn 0.060924 0.227828 -0.971794
vn 0.060924 0.227828 -0.971794
vn 0.060924 0.227828 -0.971794
vn -0.875500 0.069187 -0.478240
vn -0.875500 0.069187 -0.478240
vn -0.875500 0.069187 -0.478240
vn -0.875500 0.069187 -0.478240
vn -0.528964 0.055074 0.846856
vn -0.528964 0.055074 0.846856
vn -0.528964 0.055074 0.846856
vn -0.528964 0.055074 0.846856
vn 0.000000 -1.000000 -0.000000
vn 0.000000 -1.000000 -0.000000
vn 0.000000 -1.000000 -0.000000
vn 0.000000 -1.000000 0.000000
vn 0.000000 -1.000000 0.000000
vn 0.000000 -1.000000 0.000000
vn 0.000000 -1.000000 -0.000000
vn 0.000000 -1.000000 -0.000000
vn 0.000000 -1.000000 -0.000000
vn 0.000000 -1.000000 0.000000
vn 0.000000 -1.000000 0.000000
vn 0.000000 -1.000000 0.000000
vn 0.000000 -1.000000 -0.000000
vn 0.000000 -1.000000 -0.000000
vn 0.000000 -1.000000 -0.000000
vn 0.299302 0.417402 0.858018
vn 0.299302 0.417402 0.858018
vn 0.299302 0.417402 0.858018
vn 0.862770 0.496055 -0.097767
vn 0.862770 0.496055 -0.097767
vn 0.862770 0.496055 -0.097767
vn 0.100359 0.489985 -0.865934
vn 0.100359 0.489985 -0.865935
vn 0.100359 0.489985 -0.865934
vn -0.630026 0.555285 -0.542887
vn -0.630026 0.555285 -0.542887
vn -0.630026 0.555285 -0.542887
vn -0.111363 0.509587 0.853182
vn -0.111363 0.509587 0.853182
vn -0.111363 0.509587 0.853182
s off
g Cristals3 CristalsAllTogether:polySurface1 IMPORTANT polySurface9
usemtl Cristal7SG
f 13/25/51 14/26/52 19/27/53 18/28/54
f 14/29/55 15/30/56 20/31/57 19/32/58
f 15/30/59 16/33/60 21/34/61 20/31/62
f 16/33/63 17/35/64 22/36/65 21/34/66
f 17/35/67 13/25/68 18/28/69 22/36/70
f 14/37/71 13/38/72 23/39/73
f 15/40/74 14/37/75 23/39/76
f 16/41/77 15/40/78 23/39/79
f 17/42/80 16/41/81 23/39/82
f 13/38/83 17/42/84 23/39/85
f 18/43/86 19/44/87 24/45/88
f 19/44/89 20/46/90 24/45/91
f 20/46/92 21/47/93 24/45/94
f 21/47/95 22/48/96 24/45/97
f 22/48/98 18/43/99 24/45/100
g default
v -1.820213 0.500909 5.073715
v -1.328126 0.500909 5.178311
v -1.076588 0.500909 4.742632
v -1.413213 0.500909 4.368771
v -1.872798 0.500909 4.573391
v -1.789481 0.586000 4.871124
v -1.375387 0.729119 5.085489
v -1.170008 0.809686 4.753732
v -1.428866 0.855829 4.468771
v -1.918231 0.918610 4.547162
v -1.502188 0.500909 4.787365
v -1.501474 0.972514 4.749917
vt 0.669755 0.001741
vt 0.840799 0.001862
vt 0.837962 0.552744
vt 0.669636 0.552267
vt 0.010218 0.000977
vt 0.166132 0.001366
vt 0.163405 0.550904
vt 0.000977 0.551704
vt 0.327975 0.001984
vt 0.330520 0.551305
vt 0.496934 0.001967
vt 0.499884 0.552163
vt 0.816495 0.561869
vt 0.902095 0.825319
vt 0.677991 0.752503
vt 0.539488 0.561869
vt 0.453888 0.825319
vt 0.677991 0.988139
vt 0.089575 0.574814
vt 0.359049 0.572287
vt 0.226052 0.759000
vt 0.444725 0.827790
vt 0.228202 0.988228
vt 0.008707 0.831880
vn -0.343856 0.634532 0.692194
vn -0.343856 0.634532 0.692194
vn -0.343856 0.634532 0.692194
vn -0.343856 0.634532 0.692194
vn 0.808696 0.289769 0.511903
vn 0.808696 0.289769 0.511903
vn 0.808696 0.289769 0.511903
vn 0.808696 0.289769 0.511903
vn 0.730243 0.227826 -0.644082
vn 0.730243 0.227826 -0.644081
vn 0.730243 0.227826 -0.644082
vn 0.730243 0.227826 -0.644081
vn -0.280907 0.069189 -0.957238
vn -0.280907 0.069189 -0.957238
vn -0.280907 0.069189 -0.957238
vn -0.280907 0.069189 -0.957238
vn -0.965574 0.083834 0.246248
vn -0.965574 0.083834 0.246248
vn -0.965574 0.083834 0.246248
vn -0.965574 0.083834 0.246248
vn 0.000000 -1.000000 0.000000
vn 0.000000 -1.000000 0.000000
vn 0.000000 -1.000000 0.000000
vn 0.000000 -1.000000 0.000000
vn 0.000000 -1.000000 0.000000
vn 0.000000 -1.000000 0.000000
vn 0.000000 -1.000000 0.000000
vn 0.000000 -1.000000 0.000000
vn 0.000000 -1.000000 0.000000
vn 0.000000 -1.000000 0.000000
vn 0.000000 -1.000000 0.000000
vn 0.000000 -1.000000 0.000000
vn 0.000000 -1.000000 -0.000000
vn 0.000000 -1.000000 -0.000000
vn 0.000000 -1.000000 -0.000000
vn -0.523121 0.584348 0.620389
vn -0.523121 0.584348 0.620389
vn -0.523121 0.584348 0.620389
vn 0.392067 0.808412 0.439037
vn 0.392067 0.808412 0.439037
vn 0.392067 0.808412 0.439037
vn 0.429290 0.868049 -0.249402
vn 0.429290 0.868049 -0.249402
vn 0.429290 0.868049 -0.249402
vn 0.059788 0.927332 -0.369432
vn 0.059788 0.927332 -0.369432
vn 0.059788 0.927332 -0.369432
vn -0.423149 0.542808 0.725468
vn -0.423149 0.542808 0.725468
vn -0.423149 0.542808 0.725468
s off
g Cristals3 CristalsAllTogether:polySurface1 IMPORTANT polySurface10
usemtl Cristal7SG
f 25/49/101 26/50/102 31/51/103 30/52/104
f 26/53/105 27/54/106 32/55/107 31/56/108
f 27/54/109 28/57/110 33/58/111 32/55/112
f 28/57/113 29/59/114 34/60/115 33/58/116
f 29/59/117 25/49/118 30/52/119 34/60/120
f 26/61/121 25/62/122 35/63/123
f 27/64/124 26/61/125 35/63/126
f 28/65/127 27/64/128 35/63/129
f 29/66/130 28/65/131 35/63/132
f 25/62/133 29/66/134 35/63/135
f 30/67/136 31/68/137 36/69/138
f 31/68/139 32/70/140 36/69/141
f 32/70/142 33/71/143 36/69/144
f 33/71/145 34/72/146 36/69/147
f 34/72/148 30/67/149 36/69/150
